<?xml version="1.0" encoding="UTF-8"?>
<svg xmlns="http://www.w3.org/2000/svg" fill="none" viewBox="0 0 17 17" height="16" width="16" class="fill-current"><path fill="currentColor" fill-rule="evenodd" d="M12.033 3.118a.663.663 0 0 1 .937.002.674.674 0 0 1-.002.941L4.783 12.24l-1.252.313.313-1.253 8.123-8.123a.746.746 0 0 0 .066-.06Zm1.997-1.059a2.164 2.164 0 0 0-2.984-.072.754.754 0 0 0-.076.067l-8.334 8.333a.75.75 0 0 0-.197.348l-.667 2.667a.75.75 0 0 0 .91.91l2.667-.667a.75.75 0 0 0 .348-.197L14.03 5.12l.003-.003a2.174 2.174 0 0 0-.003-3.058ZM8.5 12.84a.75.75 0 0 0 0 1.5h6a.75.75 0 1 0 0-1.5h-6Z" clip-rule="evenodd"></path></svg>
